<svg xmlns="http://www.w3.org/2000/svg" width="311.809" height="102.779" viewBox="0 0 311.809 102.779">
  <g id="Group_780" data-name="Group 780" transform="translate(-26.385 -307.758)">
    <g id="Group_779" data-name="Group 779" transform="translate(26.385 307.758)">
      <path id="Path_1339" data-name="Path 1339" d="M157.019,86.7H355.844V189.46h-.871q-155.027,0-310.054.014c-.683,0-.878-.171-.874-.865.022-4.563-.012-9.125-.01-13.688q.016-43.647.04-87.294c0-.28,0-.56,0-.931H157.019m7.1,84.671h188.2V90.294H47.67v81.072H164.115M298.777,185.8v-4.644l.189-.02c.554,1.134,1.07,2.288,1.685,3.388a1.444,1.444,0,0,0,.981.734,1.506,1.506,0,0,0,.98-.766c.521-.935.93-1.932,1.39-2.9a3.807,3.807,0,0,1,.266-.417l.151.05v5.494h1.912v-9.894c-1.683-.314-1.837-.244-2.518,1.143-.168.342-.313.694-.482,1.036-.554,1.118-1.114,2.234-1.728,3.462-.19-.351-.31-.553-.412-.765-.72-1.481-1.427-2.968-2.163-4.441-.1-.207-.32-.474-.512-.5a12.921,12.921,0,0,0-1.638-.024v9.972h1.9V185.8m-123.842-8.018a1.6,1.6,0,0,0-1.894-1.074c-.51.058-.7.15-.69.694.026,2.672,0,5.345.017,8.018.011,1.56-.333,1.324,1.419,1.365.449.01.571-.162.566-.586-.019-1.647-.01-3.293-.008-4.94,0-.2.028-.4.06-.811.267.4.42.633.569.864,1.019,1.583,2.03,3.172,3.06,4.748a1.4,1.4,0,0,0,1.632.741c.686-.221.7-.877.7-1.5-.006-2.6,0-5.2,0-7.8,0-.231-.022-.462-.038-.769-.5,0-.947.024-1.392-.007-.462-.032-.564.182-.555.595.02,1.026.007,2.052.007,3.078q0,1.266,0,2.532l-.182.049c-1.071-1.7-2.142-3.406-3.266-5.2m110.908,6.737v-7.732h-2.016v6.334c-.218-.292-.309-.4-.383-.516-1.043-1.655-2.134-3.282-3.1-4.98a1.617,1.617,0,0,0-1.707-.919c-.607.026-.821.145-.812.8.037,2.841.015,5.683.018,8.525,0,.23.025.459.038.687h1.974v-6.072c.888,1.128,1.628,2.286,2.374,3.442.44.682.876,1.366,1.334,2.035a1.383,1.383,0,0,0,1.593.683c.651-.193.669-.8.689-1.358.009-.262,0-.525,0-.927M231.592,182.2c-.934-1.5-1.9-2.979-2.788-4.5a1.7,1.7,0,0,0-1.82-.994c-.535.054-.739.139-.733.727.031,2.889.013,5.779.016,8.668,0,.206.031.412.047.607h1.95v-6.246c.255.366.39.547.512.736,1.047,1.624,2.08,3.259,3.145,4.872a1.414,1.414,0,0,0,1.575.748c.723-.2.744-.835.742-1.458-.006-2.627,0-5.253,0-7.88,0-.231-.021-.461-.034-.748a11.308,11.308,0,0,1-1.2-.008c-.575-.065-.735.155-.723.721.036,1.671.015,3.343.01,5.015,0,.172-.037.344-.078.7-.25-.393-.4-.63-.613-.953M75.543,178.3a3.248,3.248,0,0,0-3.009-1.564c-.453,0-.907,0-1.36,0-1.855.014-2.449.6-2.455,2.442-.008,2.29,0,4.58,0,6.87,0,.228.027.456.044.729.532,0,.983-.015,1.434,0,.368.016.512-.126.5-.5-.016-.811-.032-1.623.011-2.432.015-.27.193-.748.323-.758.47-.035,1.029-.27,1.343.427.43.954.952,1.868,1.459,2.787.1.185.3.43.472.444.627.053,1.261.021,2.023.021L74.156,182.8c1.871-1.643,2.145-2.509,1.387-4.508m138.693,8.474h1.976l-2.194-4.031c.144-.093.238-.158.337-.217a2.994,2.994,0,0,0,1.388-3.326,2.884,2.884,0,0,0-2.522-2.375,16.6,16.6,0,0,0-2.714-.047c-1.319.08-1.841.615-1.865,1.957-.046,2.579-.03,5.158-.035,7.737a1.019,1.019,0,0,0,.083.273h1.894v-3.618c1.35-.181,1.355-.184,1.929.881.272.5.5,1.035.78,1.532a6.418,6.418,0,0,0,.942,1.234m-53.384-8.79a2.883,2.883,0,0,0-2.249-1.21c-.642-.033-1.287-.041-1.931-.034-1.842.021-2.4.572-2.4,2.4-.01,2.338,0,4.677,0,7.015,0,.184.029.367.047.577h1.96v-3.587a1.327,1.327,0,0,1,1.882.849,23.709,23.709,0,0,0,1.182,2.287c.113.2.34.453.536.473.607.061,1.223.023,1.983.023-.407-.76-.746-1.4-1.094-2.042-.36-.659-.731-1.312-1.092-1.96,1.869-1.262,2.289-2.92,1.181-4.79m-52.746,1.537v7.258a11.786,11.786,0,0,1,1.242.008c.593.068.731-.193.71-.738-.038-.971-.011-1.944-.011-2.9,1.3-.254,1.339-.235,1.868.776.421.8.84,1.607,1.279,2.4.1.172.264.414.414.425.65.047,1.3.02,2.1.02l-2.206-4c.122-.092.192-.153.27-.2a3.043,3.043,0,0,0,1.45-3.369,2.916,2.916,0,0,0-2.6-2.391,15.173,15.173,0,0,0-2.57-.039c-1.409.086-1.9.635-1.943,2.035-.006.191,0,.382,0,.713m164.908-2.82c-.5,0-1-.044-1.5,0a3.052,3.052,0,0,0-2.922,2.333,9.931,9.931,0,0,0,.165,5.842,2.627,2.627,0,0,0,1.79,1.719,5.517,5.517,0,0,0,3.377,0,2.894,2.894,0,0,0,1.951-1.928,10.364,10.364,0,0,0,.223-5.017,3.33,3.33,0,0,0-3.084-2.957m14.368,6.9a3.451,3.451,0,0,0,4,3.254,6.722,6.722,0,0,0,1.2-.159,2.878,2.878,0,0,0,2.269-2.048,10.1,10.1,0,0,0,.109-5.437,3.009,3.009,0,0,0-2.741-2.453,8.336,8.336,0,0,0-2.405.1,2.773,2.773,0,0,0-2.182,1.95,11,11,0,0,0-.256,4.792m-103,3.126a12.683,12.683,0,0,0,2.807-.207,2.92,2.92,0,0,0,1.565-4.326,3.2,3.2,0,0,0-2.571-1.319,11.877,11.877,0,0,1-1.822-.314.965.965,0,0,1-.521-1.505,2.023,2.023,0,0,1,3.134.126c.1.16.283.364.438.373a15.489,15.489,0,0,0,1.612-.075,8.24,8.24,0,0,0-.728-1.582,4.043,4.043,0,0,0-4.524-.958,2.926,2.926,0,0,0-1.716,4.074,3.171,3.171,0,0,0,2.738,1.545,7.639,7.639,0,0,1,1.618.254,1.347,1.347,0,0,1,.752.821,1.328,1.328,0,0,1-.321,1.083,2.41,2.41,0,0,1-3.384-.808.712.712,0,0,0-.482-.368,9.046,9.046,0,0,0-1.254.064c-.144,1.469.747,2.53,2.661,3.123m8.319-2.885a1.73,1.73,0,0,1,.549-.263c.546-.043,1.1,0,1.644-.043a2.89,2.89,0,0,0,3.032-2.955c.262-2.351-.955-3.775-3.308-3.836-1.049-.027-2.1.025-3.149-.017-.566-.023-.733.149-.728.721.027,2.887.01,5.774.012,8.661,0,.207.029.413.048.671.509,0,.96-.016,1.41,0,.384.018.5-.156.489-.514-.016-.763,0-1.527,0-2.43m-87.723-.722a3.688,3.688,0,0,0,1.294-4.2,2.653,2.653,0,0,0-2.5-2.1c-1.282-.1-2.575-.033-3.861-.093-.593-.028-.712.2-.707.743.023,2.864.01,5.728.013,8.593,0,.227.025.455.039.682h1.948v-3c1.3-.2,2.492-.382,3.77-.624m-19.625-4.887c0-1.564,0-1.565-1.574-1.489a3.628,3.628,0,0,0-.358.061c0,.288,0,.567,0,.846-.008,1.932.024,3.865-.042,5.8a1.631,1.631,0,0,1-1.853,1.65,1.685,1.685,0,0,1-1.868-1.648,8.185,8.185,0,0,1-.039-.857c0-1.742.011-3.483-.018-5.224,0-.21-.2-.571-.353-.595a9.5,9.5,0,0,0-1.485-.029,2.075,2.075,0,0,0-.072.342c0,2.171-.032,4.343.024,6.512a3.488,3.488,0,0,0,.49,1.61,4.064,4.064,0,0,0,4.507,1.492,3.354,3.354,0,0,0,2.638-3.457c.011-1.622,0-3.244,0-5.009m135.826,8.548h3.247v-1.762H221.93c-2.117,0-2.235-.126-2.084-2.241,0-.041.044-.079.109-.188.79,0,1.621-.013,2.451.006.379.009.583-.091.583-.511,0-.394.056-.788.095-1.272h-3.211v-2.346h4.558v-1.69h-6.457c-.048.076-.094.116-.094.156.011,2.673-.015,5.347.064,8.019a1.681,1.681,0,0,0,1.464,1.635c.536.1,1.086.133,1.77.2M92.149,185.011a12.406,12.406,0,0,1-1.858-.051c-.313-.052-.768-.341-.827-.6a8.244,8.244,0,0,1-.039-1.779h1.565c1.557,0,1.557,0,1.614-1.548,0-.04-.034-.082-.092-.21H89.434v-2.4h4.551v-1.642H87.471c0,2.769-.042,5.486.026,8.2a1.569,1.569,0,0,0,1.427,1.574c1.67.163,3.352.2,5.058.3v-1.844H92.149m38.067-3.35c.008.931-.023,1.865.034,2.793a2.085,2.085,0,0,0,2.291,2.272c.976.055,1.957.044,2.936.048,1.536.007,1.536,0,1.353-1.55a1.035,1.035,0,0,0-.111-.212H136c-.931,0-1.863,0-2.795-.013-.5-.006-.929-.162-.976-.731-.044-.536-.01-1.078-.01-1.706h3.09l.114-1.731H132.2c0-.641.029-1.188-.008-1.731-.036-.507.151-.665.651-.651,1.146.031,2.293.026,3.439-.006.194-.005.523-.193.548-.339a8.357,8.357,0,0,0,.026-1.371c-2.146,0-4.173.006-6.2,0-.428,0-.439.248-.438.561.005,1.409,0,2.819,0,4.372m125.362,5.112c.764,0,1.529.024,2.29-.017.19-.01.5-.209.526-.36a8.69,8.69,0,0,0,.025-1.383c-.373,0-.631,0-.889,0-.931,0-1.861,0-2.791-.015-.469-.006-.886-.16-.933-.689-.05-.555-.011-1.118-.011-1.736h3.068l.137-1.747h-3.238c0-.626.027-1.172-.008-1.713-.032-.489.12-.685.637-.663.881.036,1.765.01,2.648.01,1.474,0,1.475,0,1.371-1.475a1.044,1.044,0,0,0-.11-.252h-4.836c-1.681,0-1.686,0-1.68,1.673.008,2.051-.012,4.1.05,6.154a1.982,1.982,0,0,0,2.029,2.144c.519.064,1.047.049,1.714.071m10.859-6.692h.782a10.153,10.153,0,0,0-.217-1.219c-.618-1.976-3.409-2.927-5.386-1.756a3.846,3.846,0,0,0-1.376,1.545,8.552,8.552,0,0,0-.474,4.5c.185,2.787,2.169,4.226,4.9,3.567a3.31,3.31,0,0,0,2.464-3.812h-1.684c-.081.341-.146.644-.225.943a1.485,1.485,0,0,1-1.531,1.238c-.985.035-1.707-.312-1.783-1.17a27.153,27.153,0,0,1,0-4.4c.055-.723.713-1.064,1.547-1.109.729-.04,1.4.145,1.611.894.2.719.607.88,1.37.776m62.213,5.833-1.335-3.769c-.556-1.571-1.082-3.154-1.694-4.7a1.186,1.186,0,0,0-.87-.659,2.174,2.174,0,0,0-1.079.624c-.162.135-.207.419-.286.643q-1.043,2.967-2.078,5.936c-.311.894-.611,1.792-.949,2.784.645,0,1.19.028,1.729-.017a.693.693,0,0,0,.424-.37c.219-.434.272-1.075.61-1.292.358-.23.969-.066,1.469-.073.191,0,.382,0,.572,0,1.131,0,1.119,0,1.509,1.085.087.242.261.609.435.634a13.157,13.157,0,0,0,1.808.03c-.108-.343-.171-.544-.265-.853m-161.162-9.021c-1.038-.349-1.451-.106-1.872,1.1q-1.358,3.877-2.717,7.754c-.107.306-.209.615-.316.933,1.7.32,1.869.216,2.44-1.187a.932.932,0,0,1,.649-.448,12.165,12.165,0,0,1,1.571-.021c1.244,0,1.23,0,1.666,1.171.084.224.306.528.5.556a12.135,12.135,0,0,0,1.681.026c-.063-.228-.092-.362-.137-.491-.921-2.654-1.838-5.309-2.773-7.958a10.363,10.363,0,0,0-.691-1.43m-46.429,3.8c.007.858-.038,1.721.03,2.574.28,3.505,3.184,4.038,5.28,3.32a3.269,3.269,0,0,0,2.067-3.682h-1.7c-.046.248-.078.458-.123.665-.246,1.117-.721,1.527-1.746,1.514a1.562,1.562,0,0,1-1.762-1.578,22.166,22.166,0,0,1-.031-3.5,1.56,1.56,0,0,1,1.536-1.593,1.666,1.666,0,0,1,1.929,1.2.9.9,0,0,0,.585.444,8.7,8.7,0,0,0,1.376.02,10,10,0,0,0-.181-1.184c-.7-2.5-4.062-2.651-5.576-1.72-1.262.776-1.541,2.046-1.689,3.517m197.166-3.425a4.4,4.4,0,0,0-3.309-.5,2.96,2.96,0,0,0-2.319,1.906,9.994,9.994,0,0,0-.42,4.586,3.626,3.626,0,0,0,4.653,3.508,3.309,3.309,0,0,0,2.72-3.815c-1.409-.291-1.564-.211-1.964,1.011a1.417,1.417,0,0,1-1.6,1.124c-.933,0-1.613-.379-1.7-1.2a26.956,26.956,0,0,1-.092-3.986,1.507,1.507,0,0,1,1.551-1.483,1.629,1.629,0,0,1,1.876,1.168.829.829,0,0,0,.491.474,9.815,9.815,0,0,0,1.427.023,3.021,3.021,0,0,0-1.313-2.809M204.446,178.8c-.185-.489-.342-.992-.563-1.465a1,1,0,0,0-1.748-.186,3.921,3.921,0,0,0-.484,1.025q-1.28,3.637-2.537,7.282c-.143.413-.276.83-.418,1.261a2.7,2.7,0,0,0,.3.055c1.557.065,1.545.06,2.159-1.365a.774.774,0,0,1,.566-.368c.784-.042,1.574.012,2.359-.029a.629.629,0,0,1,.737.582,4.028,4.028,0,0,0,.251.817c.07.147.242.336.379.346.557.039,1.119.017,1.805.017-.957-2.711-1.867-5.287-2.8-7.972m32.085-2.067h-.989v1.757h2.62v.838c0,2.267-.009,4.534.015,6.8,0,.216.189.594.333.616a11.074,11.074,0,0,0,1.611.03v-8.3h2.667v-1.739h-6.257M64.5,181.087v-2.629h2.669v-1.691h-7.23v1.712h2.61v.841c0,2.269-.009,4.538.015,6.806,0,.216.191.592.336.614a11,11,0,0,0,1.6.029v-5.683m86.563-4.354h-5.63v1.748h2.653v8.291c.474,0,.876-.03,1.272.007.53.05.7-.138.7-.68-.027-2.267-.011-4.535-.011-6.8v-.839h1.3c1.473,0,1.474,0,1.375-1.466a1.081,1.081,0,0,0-.112-.258h-1.539m179.657,8.961a5.518,5.518,0,0,0,1.691.932,27.36,27.36,0,0,0,3.709.128c.129,0,.333-.22.372-.372a5.7,5.7,0,0,0,.024-.782c.053-.489-.174-.614-.626-.6-.763.029-1.527.016-2.29.006-1.074-.014-1.305-.242-1.309-1.312-.007-2.052,0-4.1,0-6.156v-.81c-.515,0-.921.033-1.32-.008-.555-.056-.682.18-.675.7.026,2.076-.017,4.152.027,6.227a10,10,0,0,0,.4,2.045m-213.41-.031v1.055h1.918V176.73a9.448,9.448,0,0,1-1.133-.008c-.633-.081-.809.153-.8.789.036,2.67.015,5.341.015,8.152m193.077-4v-4.931a12.513,12.513,0,0,1-1.272-.008c-.571-.062-.729.152-.723.718.027,2.884.012,5.768.015,8.652,0,.206.03.412.047.621h1.934v-5.053m-171.626,5.071a4.288,4.288,0,0,0,1.24.142c.273-.046.69-.381.7-.605.026-.48-.016-1.205-.313-1.4a2.042,2.042,0,0,0-1.547-.015c-.212.069-.292.682-.34,1.059a1.735,1.735,0,0,0,.257.819m200.115.183c.365-.114.968-.142,1.047-.359a2.139,2.139,0,0,0,0-1.5c-.119-.254-.766-.356-1.177-.359-.731-.005-.958.319-.949,1.112s.207,1.025,1.081,1.1m-94.807-.976c.127.943.427,1.115,1.556.961a.7.7,0,0,0,.7-.741c0-.5.2-1.092-.421-1.391C244.978,184.318,244.166,184.79,244.071,185.938Z" transform="translate(-44.035 -86.695)" fill="#fbfbfe"/>
      <path id="Path_1340" data-name="Path 1340" d="M307.321,156.984a16.483,16.483,0,0,1,6.656,14.241c-.235,5.816-3.078,10.25-7.6,13.781.976,1.506,1.923,2.992,2.9,4.46a2.876,2.876,0,0,0,2.659,1.248c1.141-.021,2.283,0,3.471,0v11.607a.846.846,0,0,1-.251.079c-2.842-.017-5.688.051-8.525-.08a12.531,12.531,0,0,1-11-6.938c-1.172-2.131-2.479-4.188-3.711-6.287a1.027,1.027,0,0,0-1.029-.58c-1.473.036-2.947.013-4.5.013v13.841H271.138V152.859h.784c7.407,0,14.813.012,22.22-.005a21.084,21.084,0,0,1,10.425,2.383c.936.514,1.808,1.143,2.754,1.747M287.749,164.8h-1.366c0,3.937,0,7.754-.005,11.571,0,.39.177.481.525.479,2.028-.01,4.057,0,6.085-.016a5.3,5.3,0,0,0,1.341-.183,5.793,5.793,0,0,0,4.234-5.782,5.671,5.671,0,0,0-5.806-6.066C291.135,164.787,289.512,164.8,287.749,164.8Z" transform="translate(-207.652 -134.359)" fill="#fdfeff"/>
      <path id="Path_1341" data-name="Path 1341" d="M459.318,162.282c0,6.929,0,13.786,0,20.643a8.5,8.5,0,0,0,1.639,5.449c1.858,2.369,4.364,2.945,7.186,2.382,3.141-.626,4.924-3.451,5.258-6.479a17.068,17.068,0,0,0,.069-1.86q.006-14.3,0-28.6v-.944c.29-.014.541-.037.792-.037,4.492,0,8.984.011,13.475-.016.633,0,.8.164.8.8q-.031,14.192-.014,28.384a22.387,22.387,0,0,1-1.829,9.562,18.681,18.681,0,0,1-7.83,8.579,27.489,27.489,0,0,1-22.236,1.295,18.853,18.853,0,0,1-10.983-11.011A23.2,23.2,0,0,1,444.272,182q-.025-14.192,0-28.384c0-.233.021-.465.034-.744.283-.013.515-.032.747-.032,4.492,0,8.983.01,13.475-.015.617,0,.818.139.81.788C459.3,156.475,459.318,159.343,459.318,162.282Z" transform="translate(-332.381 -134.335)" fill="#fefeff"/>
      <path id="Path_1342" data-name="Path 1342" d="M623.515,196.834a13.761,13.761,0,0,1-2-13.964,13.279,13.279,0,0,1,4.077-5.526l.548-.458c-.736-.784-1.492-1.507-2.155-2.308a11.987,11.987,0,0,1-2.75-10.018,13.247,13.247,0,0,1,8.265-10.367,16.065,16.065,0,0,1,6.615-1.322q10.713-.018,21.426,0c.163,0,.326.023.536.04v11.961h-4.223c-5.038,0-10.078-.069-15.114.038a3.239,3.239,0,0,0-2.827,4.961,3.557,3.557,0,0,0,2.748,1.587,11.581,11.581,0,0,0,1.642.093q7.2.01,14.4,0h.9c.017.274.042.481.042.688,0,3.464-.015,6.927.017,10.39.006.648-.192.793-.811.79q-7.309-.037-14.618-.007a5.708,5.708,0,0,0-3.361.774,3.178,3.178,0,0,0-1.383,3.3,2.88,2.88,0,0,0,2.146,2.518,8.772,8.772,0,0,0,2.391.349c5.733.029,11.465.015,17.2.015h.84v12.005c-.24.013-.471.036-.7.036q-10.57,0-21.139,0a16.153,16.153,0,0,1-9.9-2.981A32.5,32.5,0,0,1,623.515,196.834Z" transform="translate(-459.328 -134.367)" fill="#fdfdff"/>
      <path id="Path_1343" data-name="Path 1343" d="M943.909,152.842h2.578c.019.3.048.553.048.8q0,7.918,0,15.836a22.289,22.289,0,0,1-2.292,10.312,17.068,17.068,0,0,1-6.978,7.36,35.59,35.59,0,0,1-4.037,1.8.832.832,0,0,0-.648.918c.022,3.869.012,7.739.012,11.609v.842h-15.3V201.5c0-3.846-.013-7.691.014-11.537a.866.866,0,0,0-.708-1.011,17.947,17.947,0,0,1-9.363-6.608,17.28,17.28,0,0,1-3.115-7.086,34.456,34.456,0,0,1-.634-5.6c-.083-5.373-.027-10.749-.035-16.123,0-.428.012-.709.588-.707,4.586.021,9.172.012,13.758.014.094,0,.188.021.395.046,0,.275,0,.552,0,.828q0,7.954,0,15.908a9.376,9.376,0,0,0,1.074,4.826,6.111,6.111,0,0,0,5.972,3.177,6.558,6.558,0,0,0,6.476-6.457c.114-1.784.086-3.579.092-5.37.011-4.037,0-8.074,0-12.11v-.852Z" transform="translate(-663.198 -134.343)" fill="#fefeff"/>
      <path id="Path_1344" data-name="Path 1344" d="M138.764,166.73c0,6.857-.012,13.642.019,20.427a4.407,4.407,0,0,0,.447,1.977,2.5,2.5,0,0,0,2.4,1.272c1.5-.016,3,0,4.54,0v11.914a2.346,2.346,0,0,1-.4.063c-2.6-.034-5.214.046-7.805-.139a15.444,15.444,0,0,1-10.529-5,14.664,14.664,0,0,1-3.978-10.362q-.021-10.572,0-21.144V164.8H110.7V152.838h.776q19.5,0,38.99-.013c.641,0,.855.14.848.823-.037,3.44-.017,6.88-.017,10.321v.786H138.764Z" transform="translate(-92.066 -134.339)" fill="#fefeff"/>
      <path id="Path_1345" data-name="Path 1345" d="M789.916,174.466c0,4.062.007,8.052,0,12.042a3.41,3.41,0,0,0,1.532,3.259,4.756,4.756,0,0,0,2.215.6c3.942.058,7.884.027,11.826.027h.825v11.9a1.3,1.3,0,0,1-.318.079c-5.136-.008-10.272,0-15.409-.043a15.959,15.959,0,0,1-7.455-1.768c-5.268-2.8-8.226-7.146-8.459-13.157-.13-3.364-.049-6.736-.051-10.1q-.006-11.755,0-23.51v-.957h.813c4.54,0,9.079.014,13.618-.015.675,0,.885.159.883.861C789.906,160.585,789.916,167.49,789.916,174.466Z" transform="translate(-570.371 -134.334)" fill="#fefeff"/>
      <path id="Path_1346" data-name="Path 1346" d="M1053.716,283.231a6.8,6.8,0,0,1,1.333,7.447,6.982,6.982,0,0,1-6.577,4.7,7.179,7.179,0,0,1-7.334-5.589,7.269,7.269,0,0,1,11.771-7.336C1053.171,282.7,1053.425,282.948,1053.716,283.231Z" transform="translate(-762.242 -226.482)" fill="#fdfdfe"/>
      <path id="Path_1347" data-name="Path 1347" d="M142.587,417.147c-.834,1.072-1.945.569-3,.7,0-.814-.022-1.563.017-2.309a.757.757,0,0,1,.348-.495,2.817,2.817,0,0,1,2.394.213A1.559,1.559,0,0,1,142.587,417.147Z" transform="translate(-112.874 -323.128)" fill="#f4f5fc"/>
      <path id="Path_1348" data-name="Path 1348" d="M640.083,418.185c-.592-.405-.535-2.672.047-2.769a5,5,0,0,1,2.2.131c.59.179.727.831.592,1.454a1.358,1.358,0,0,1-1.271,1.164C641.156,418.214,640.651,418.182,640.083,418.185Z" transform="translate(-473.16 -323.476)" fill="#f6f7fd"/>
      <path id="Path_1349" data-name="Path 1349" d="M445.563,417.9c-.076-.654-.095-1.271-.116-1.887a.836.836,0,0,1,.879-.979,6.2,6.2,0,0,1,1.417.084,1.277,1.277,0,0,1,.936,1.419,1.372,1.372,0,0,1-1.274,1.393A13.164,13.164,0,0,1,445.563,417.9Z" transform="translate(-333.234 -323.243)" fill="#f6f7fd"/>
      <path id="Path_1350" data-name="Path 1350" d="M283.352,415.456c.658,1.383.032,2.39-1.434,2.4-.475,0-.95,0-1.479,0,0-.8-.028-1.574.021-2.34a.706.706,0,0,1,.443-.482A2.437,2.437,0,0,1,283.352,415.456Z" transform="translate(-214.347 -323.148)" fill="#f4f5fc"/>
      <path id="Path_1351" data-name="Path 1351" d="M853.63,416.525c.333-1.324.684-1.669,1.709-1.732,1.266-.078,1.965.371,2.086,1.62a19.032,19.032,0,0,1-.043,3.627,1.887,1.887,0,0,1-3.63.1A34.19,34.19,0,0,1,853.63,416.525Z" transform="translate(-627.312 -323.069)" fill="#f9f9fd"/>
      <path id="Path_1352" data-name="Path 1352" d="M922.587,414.829c1.558-.066,2.195.373,2.317,1.837a17.736,17.736,0,0,1-.1,3.475,1.542,1.542,0,0,1-1.61,1.348,1.667,1.667,0,0,1-1.907-1.064,6.927,6.927,0,0,1,.066-4.689C921.5,415.342,922.122,415.13,922.587,414.829Z" transform="translate(-675.782 -323.096)" fill="#f9f9fd"/>
      <path id="Path_1353" data-name="Path 1353" d="M575.791,415.52c-.034-.419.09-.611.477-.592.357.018.716,0,1.074.006a1.682,1.682,0,0,1,1.549,2.585,1.377,1.377,0,0,1-.855.645,18.2,18.2,0,0,1-2.247.133Z" transform="translate(-427.137 -323.172)" fill="#f6f7fd"/>
      <path id="Path_1354" data-name="Path 1354" d="M251.839,416.023c.236,2.013-.613,2.588-3.153,2.168v-3.165C250.846,414.767,251.6,415.063,251.839,416.023Z" transform="translate(-191.477 -323.178)" fill="#f9f9fd"/>
      <path id="Path_1355" data-name="Path 1355" d="M1044.26,423.064c-.24-.024-.418-.047-.646-.078l1.126-3.589.168-.015,1.117,3.681Z" transform="translate(-764.187 -326.382)" fill="#eff0fb"/>
      <path id="Path_1356" data-name="Path 1356" d="M480.147,419.179c.064-.177.112-.3.233-.629l1.151,3.847h-2.383C479.486,421.307,479.808,420.268,480.147,419.179Z" transform="translate(-357.514 -325.782)" fill="#eff0fb"/>
      <path id="Path_1357" data-name="Path 1357" d="M610.2,421.408c.162.556.3,1.057.471,1.64H608.3l1.1-3.557.177-.024C609.779,420.1,609.979,420.725,610.2,421.408Z" transform="translate(-450.563 -326.442)" fill="#eff0fb"/>
    </g>
  </g>
</svg>
